# xmcd
#
# Track frame offsets:
#        150
#        19533
#        38752
#        57957
#        79076
#        99706
#        119325
#        141557
#        167002
#        183761
#        206706
#
# Disc length: 3042 seconds
#
# Revision: 1
# Processed by: cddbd v1.5PL3 Copyright (c) Steve Scherf et al.
# Submitted via: ExactAudioCopy v0.95a5
#
DISCID=920be00b
DTITLE=Kool and The Gang - Ballad Collection
DYEAR=1900
DGENRE=Disco
TTITLE0=Joanna
TTITLE1=Jones Vs. Jones
TTITLE2=No Show
TTITLE3=As One
TTITLE4=Think It Over
TTITLE5=Love Affair
TTITLE6=Too Hot
TTITLE7=Bad Woman
TTITLE8=Place For Us
TTITLE9=Forever
TTITLE10=Cherish
EXTD=
EXTT0=
EXTT1=
EXTT2=
EXTT3=
EXTT4=
EXTT5=
EXTT6=
EXTT7=
EXTT8=
EXTT9=
EXTT10=
PLAYORDER=
